<?xml version="1.0" encoding="UTF-8"?>
<svg xmlns="http://www.w3.org/2000/svg" xmlns:xlink="http://www.w3.org/1999/xlink" width="567pt" height="284pt" viewBox="0 0 567 284" version="1.1">
<defs>
<clipPath id="clip1">
  <path d="M 0 0.535156 L 566.929688 0.535156 L 566.929688 284 L 0 284 Z M 0 0.535156 "/>
</clipPath>
</defs>
<g id="surface1">
<g clip-path="url(#clip1)" clip-rule="nonzero">
<path style=" stroke:none;fill-rule:nonzero;fill:rgb(100%,100%,100%);fill-opacity:1;" d="M 566.929688 284 L 0 284 L 0 0.535156 L 566.929688 0.535156 L 566.929688 284 "/>
</g>
<path style=" stroke:none;fill-rule:nonzero;fill:rgb(22.322083%,20.909119%,21.260071%);fill-opacity:1;" d="M 77 111.535156 L 129 111.535156 C 131.210938 111.535156 133 109.742188 133 107.535156 L 133 95.535156 C 133 93.324219 131.210938 91.535156 129 91.535156 L 77 91.535156 C 74.789062 91.535156 73 93.324219 73 95.535156 L 73 107.535156 C 73 109.742188 74.789062 111.535156 77 111.535156 "/>
<path style=" stroke:none;fill-rule:nonzero;fill:rgb(22.322083%,20.909119%,21.260071%);fill-opacity:1;" d="M 77 151.535156 L 89 151.535156 C 91.210938 151.535156 93 149.742188 93 147.535156 L 93 135.535156 C 93 133.324219 91.210938 131.535156 89 131.535156 L 77 131.535156 C 74.789062 131.535156 73 133.324219 73 135.535156 L 73 147.535156 C 73 149.742188 74.789062 151.535156 77 151.535156 "/>
<path style=" stroke:none;fill-rule:nonzero;fill:rgb(22.322083%,20.909119%,21.260071%);fill-opacity:1;" d="M 117 131.535156 L 129 131.535156 C 131.210938 131.535156 133 129.742188 133 127.535156 L 133 95.535156 C 133 93.324219 131.210938 91.535156 129 91.535156 L 117 91.535156 C 114.789062 91.535156 113 93.324219 113 95.535156 L 113 127.535156 C 113 129.742188 114.789062 131.535156 117 131.535156 "/>
<path style=" stroke:none;fill-rule:nonzero;fill:rgb(22.322083%,20.909119%,21.260071%);fill-opacity:1;" d="M 117 191.535156 L 129 191.535156 C 131.210938 191.535156 133 189.742188 133 187.535156 L 133 155.535156 C 133 153.324219 131.210938 151.535156 129 151.535156 L 117 151.535156 C 114.789062 151.535156 113 153.324219 113 155.535156 L 113 187.535156 C 113 189.742188 114.789062 191.535156 117 191.535156 "/>
<path style=" stroke:none;fill-rule:nonzero;fill:rgb(22.322083%,20.909119%,21.260071%);fill-opacity:1;" d="M 188.25 124.035156 L 185.402344 124.035156 C 183.402344 124.035156 182.800781 125.234375 182.800781 127.234375 L 182.800781 130.585938 L 188.699219 130.585938 L 188.699219 135.734375 L 182.800781 135.734375 L 182.800781 153.386719 L 176.75 153.386719 L 176.75 135.734375 L 173.148438 135.734375 L 173.148438 131.085938 L 176.75 130.585938 L 176.75 127.183594 C 176.75 121.785156 179.449219 118.882812 185.050781 118.882812 L 188.25 118.882812 L 188.25 124.035156 "/>
<path style=" stroke:none;fill-rule:nonzero;fill:rgb(22.322083%,20.909119%,21.260071%);fill-opacity:1;" d="M 206.25 139.636719 C 206.300781 139.335938 206.351562 139.035156 206.351562 138.886719 C 206.351562 136.183594 204.449219 134.933594 202.300781 134.933594 C 199.300781 134.933594 198 137.035156 197.851562 139.636719 Z M 208.550781 146.683594 L 211.402344 150.636719 C 209.652344 152.386719 206.601562 153.933594 202.949219 153.933594 C 195.050781 153.933594 191.699219 148.933594 191.699219 141.984375 C 191.699219 135.535156 195.25 130.085938 202.300781 130.085938 C 209.300781 130.085938 211.949219 135.035156 211.949219 139.984375 C 211.949219 141.234375 211.800781 142.984375 211.550781 143.933594 L 197.800781 143.933594 C 197.949219 146.933594 199.648438 148.785156 202.949219 148.785156 C 204.800781 148.785156 206.851562 148.085938 208.550781 146.683594 "/>
<path style=" stroke:none;fill-rule:nonzero;fill:rgb(22.322083%,20.909119%,21.260071%);fill-opacity:1;" d="M 223.148438 134.183594 C 224.300781 132.132812 226.050781 130.085938 229.25 130.085938 C 230.199219 130.085938 231.101562 130.183594 231.851562 130.382812 L 231.398438 136.785156 C 230.351562 136.535156 228.851562 136.335938 227.75 136.335938 C 225.75 136.335938 224.199219 137.433594 223.347656 139.035156 L 223.347656 153.386719 L 217.300781 153.386719 L 217.300781 130.585938 L 223.097656 130.585938 L 223.097656 134.183594 L 223.148438 134.183594 "/>
<path style=" stroke:none;fill-rule:nonzero;fill:rgb(22.322083%,20.909119%,21.260071%);fill-opacity:1;" d="M 241.949219 134.183594 C 243.097656 132.132812 244.847656 130.085938 248.050781 130.085938 C 249 130.085938 249.898438 130.183594 250.648438 130.382812 L 250.199219 136.785156 C 249.148438 136.535156 247.648438 136.335938 246.550781 136.335938 C 244.550781 136.335938 243 137.433594 242.148438 139.035156 L 242.148438 153.386719 L 236.097656 153.386719 L 236.097656 130.585938 L 241.898438 130.585938 L 241.898438 134.183594 L 241.949219 134.183594 "/>
<path style=" stroke:none;fill-rule:nonzero;fill:rgb(22.322083%,20.909119%,21.260071%);fill-opacity:1;" d="M 268.851562 142.035156 C 268.851562 137.734375 267.398438 135.535156 264.199219 135.535156 C 261.097656 135.535156 259.648438 137.734375 259.648438 141.933594 C 259.648438 146.335938 261.148438 148.484375 264.25 148.484375 C 267.398438 148.484375 268.851562 146.183594 268.851562 142.035156 Z M 275.050781 141.933594 C 275.050781 148.933594 271.648438 153.933594 264.148438 153.933594 C 257 153.933594 253.5 148.835938 253.5 142.035156 C 253.5 135.085938 256.847656 130.085938 264.347656 130.085938 C 271.550781 130.085938 275.050781 135.085938 275.050781 141.933594 "/>
<path style=" stroke:none;fill-rule:nonzero;fill:rgb(22.322083%,20.909119%,21.260071%);fill-opacity:1;" d="M 300.847656 153.386719 L 295 153.386719 L 295 150.785156 C 293.800781 152.484375 291.597656 153.886719 287.949219 153.886719 C 282.796875 153.886719 280.148438 150.734375 280.148438 144.835938 L 280.148438 130.585938 L 286.246094 130.585938 L 286.246094 144.136719 C 286.246094 146.886719 287.296875 148.335938 290.347656 148.335938 C 292.097656 148.335938 293.898438 147.484375 294.800781 146.636719 L 294.800781 130.585938 L 300.847656 130.585938 L 300.847656 153.386719 "/>
<path style=" stroke:none;fill-rule:nonzero;fill:rgb(22.322083%,20.909119%,21.260071%);fill-opacity:1;" d="M 321.046875 136.984375 C 319.699219 135.636719 317.796875 134.636719 315.546875 134.636719 C 313.449219 134.636719 312.449219 135.636719 312.449219 136.835938 C 312.449219 137.886719 313.097656 138.683594 314.546875 138.984375 L 318.347656 139.886719 C 322.898438 140.886719 324.847656 143.335938 324.847656 146.636719 C 324.847656 150.234375 322.398438 153.933594 314.949219 153.933594 C 310.046875 153.933594 307.097656 151.886719 305.648438 150.085938 L 309.097656 146.484375 C 310.398438 147.886719 312.347656 149.433594 315.199219 149.433594 C 317.246094 149.433594 318.699219 148.683594 318.699219 147.183594 C 318.699219 146.183594 317.949219 145.386719 316.398438 145.035156 L 312.449219 144.085938 C 308.445312 143.085938 306.445312 140.734375 306.445312 137.433594 C 306.445312 134.136719 308.898438 130.085938 315.796875 130.085938 C 320.296875 130.085938 322.898438 131.785156 324.398438 133.433594 L 321.046875 136.984375 "/>
<path style=" stroke:none;fill-rule:nonzero;fill:rgb(22.322083%,20.909119%,21.260071%);fill-opacity:1;" d="M 354.445312 136.984375 C 353.097656 135.636719 351.195312 134.636719 348.945312 134.636719 C 346.847656 134.636719 345.847656 135.636719 345.847656 136.835938 C 345.847656 137.886719 346.496094 138.683594 347.945312 138.984375 L 351.746094 139.886719 C 356.296875 140.886719 358.246094 143.335938 358.246094 146.636719 C 358.246094 150.234375 355.796875 153.933594 348.347656 153.933594 C 343.445312 153.933594 340.496094 151.886719 339.046875 150.085938 L 342.496094 146.484375 C 343.796875 147.886719 345.746094 149.433594 348.597656 149.433594 C 350.648438 149.433594 352.097656 148.683594 352.097656 147.183594 C 352.097656 146.183594 351.347656 145.386719 349.796875 145.035156 L 345.847656 144.085938 C 341.847656 143.085938 339.847656 140.734375 339.847656 137.433594 C 339.847656 134.136719 342.296875 130.085938 349.195312 130.085938 C 353.695312 130.085938 356.296875 131.785156 357.796875 133.433594 L 354.445312 136.984375 "/>
<path style=" stroke:none;fill-rule:nonzero;fill:rgb(22.322083%,20.909119%,21.260071%);fill-opacity:1;" d="M 372.945312 145.433594 L 378.046875 130.585938 L 384.546875 130.585938 L 371.195312 164.1875 L 365.046875 164.1875 L 369.945312 152.386719 L 360.597656 130.585938 L 367.394531 130.585938 L 372.945312 145.433594 "/>
<path style=" stroke:none;fill-rule:nonzero;fill:rgb(22.322083%,20.909119%,21.260071%);fill-opacity:1;" d="M 401.847656 136.984375 C 400.496094 135.636719 398.597656 134.636719 396.347656 134.636719 C 394.246094 134.636719 393.246094 135.636719 393.246094 136.835938 C 393.246094 137.886719 393.894531 138.683594 395.347656 138.984375 L 399.148438 139.886719 C 403.695312 140.886719 405.648438 143.335938 405.648438 146.636719 C 405.648438 150.234375 403.195312 153.933594 395.746094 153.933594 C 390.847656 153.933594 387.894531 151.886719 386.445312 150.085938 L 389.894531 146.484375 C 391.195312 147.886719 393.144531 149.433594 395.996094 149.433594 C 398.046875 149.433594 399.496094 148.683594 399.496094 147.183594 C 399.496094 146.183594 398.746094 145.386719 397.195312 145.035156 L 393.246094 144.085938 C 389.246094 143.085938 387.246094 140.734375 387.246094 137.433594 C 387.246094 134.136719 389.695312 130.085938 396.597656 130.085938 C 401.097656 130.085938 403.695312 131.785156 405.195312 133.433594 L 401.847656 136.984375 "/>
<path style=" stroke:none;fill-rule:nonzero;fill:rgb(22.322083%,20.909119%,21.260071%);fill-opacity:1;" d="M 419.097656 145.886719 C 419.097656 147.585938 419.996094 148.335938 421.597656 148.335938 C 422.394531 148.335938 423.445312 148.183594 424.296875 147.933594 L 424.394531 153.183594 C 423.246094 153.636719 421.246094 153.933594 419.546875 153.933594 C 414.847656 153.933594 413.046875 150.886719 413.046875 146.734375 L 413.046875 135.683594 L 408.894531 135.683594 L 408.894531 131.085938 L 413.046875 130.585938 L 413.046875 125.035156 L 419.097656 124.085938 L 419.097656 130.585938 L 424.195312 130.585938 L 424.195312 135.683594 L 419.097656 135.683594 L 419.097656 145.886719 "/>
<path style=" stroke:none;fill-rule:nonzero;fill:rgb(22.322083%,20.909119%,21.260071%);fill-opacity:1;" d="M 442.945312 139.636719 C 442.996094 139.335938 443.046875 139.035156 443.046875 138.886719 C 443.046875 136.183594 441.144531 134.933594 438.996094 134.933594 C 435.996094 134.933594 434.695312 137.035156 434.546875 139.636719 Z M 445.246094 146.683594 L 448.097656 150.636719 C 446.347656 152.386719 443.296875 153.933594 439.644531 153.933594 C 431.746094 153.933594 428.394531 148.933594 428.394531 141.984375 C 428.394531 135.535156 431.945312 130.085938 438.996094 130.085938 C 445.996094 130.085938 448.644531 135.035156 448.644531 139.984375 C 448.644531 141.234375 448.496094 142.984375 448.246094 143.933594 L 434.496094 143.933594 C 434.644531 146.933594 436.347656 148.785156 439.644531 148.785156 C 441.496094 148.785156 443.546875 148.085938 445.246094 146.683594 "/>
<path style=" stroke:none;fill-rule:nonzero;fill:rgb(22.322083%,20.909119%,21.260071%);fill-opacity:1;" d="M 453.992188 130.585938 L 459.84375 130.585938 L 459.84375 133.183594 C 461.09375 131.683594 463.046875 130.085938 466.246094 130.085938 C 469.894531 130.085938 471.796875 131.484375 473.195312 133.433594 C 474.445312 131.835938 477.097656 130.085938 481.097656 130.085938 C 486.847656 130.085938 489.246094 133.085938 489.246094 138.636719 L 489.246094 153.386719 L 483.144531 153.386719 L 483.144531 139.136719 C 483.144531 136.933594 482.144531 135.636719 479.347656 135.636719 C 477.296875 135.636719 475.695312 136.433594 474.746094 137.335938 L 474.746094 153.386719 L 468.695312 153.386719 L 468.695312 137.835938 C 467.945312 136.585938 466.644531 135.636719 464.496094 135.636719 C 462.59375 135.636719 461.195312 136.433594 460.046875 137.335938 L 460.046875 153.386719 L 453.992188 153.386719 L 453.992188 130.585938 "/>
<path style=" stroke:none;fill-rule:nonzero;fill:rgb(22.322083%,20.909119%,21.260071%);fill-opacity:1;" d="M 509.296875 136.984375 C 507.945312 135.636719 506.046875 134.636719 503.796875 134.636719 C 501.695312 134.636719 500.695312 135.636719 500.695312 136.835938 C 500.695312 137.886719 501.34375 138.683594 502.796875 138.984375 L 506.59375 139.886719 C 511.144531 140.886719 513.09375 143.335938 513.09375 146.636719 C 513.09375 150.234375 510.644531 153.933594 503.195312 153.933594 C 498.292969 153.933594 495.34375 151.886719 493.894531 150.085938 L 497.34375 146.484375 C 498.644531 147.886719 500.59375 149.433594 503.445312 149.433594 C 505.496094 149.433594 506.945312 148.683594 506.945312 147.183594 C 506.945312 146.183594 506.195312 145.386719 504.644531 145.035156 L 500.695312 144.085938 C 496.695312 143.085938 494.695312 140.734375 494.695312 137.433594 C 494.695312 134.136719 497.144531 130.085938 504.046875 130.085938 C 508.546875 130.085938 511.144531 131.785156 512.644531 133.433594 L 509.296875 136.984375 "/>
</g>
</svg>
